<?xml version="1.0" encoding="utf-8"?>
<!-- Generator: Adobe Illustrator 27.2.0, SVG Export Plug-In . SVG Version: 6.00 Build 0)  -->
<svg version="1.1" id="Layer_1" xmlns="http://www.w3.org/2000/svg" xmlns:xlink="http://www.w3.org/1999/xlink" x="0px" y="0px"
	 viewBox="0 0 161.5 160.3" style="enable-background:new 0 0 161.5 160.3;" xml:space="preserve">
<style type="text/css">
	.st0{fill:#A7A8AB;}
	.st1{fill:#FFFFFF;}
	.st2{fill:#FFFFFF;stroke:#FFFFFF;stroke-width:0.5;stroke-miterlimit:10;}
</style>
<g>
	<g>
		<g>
			<rect x="49.1" y="18.2" class="st0" width="61.5" height="61.5"/>
		</g>
	</g>
	<g>
		<g>
			<rect x="84" y="44" class="st1" width="26.6" height="3"/>
		</g>
	</g>
	<g>
		<g>
			
				<rect x="61" y="32.1" transform="matrix(5.181697e-03 -1 1 5.181697e-03 16.7358 107.7709)" class="st1" width="3" height="26.8"/>
		</g>
	</g>
	<g>
		<g>
			
				<rect x="91.1" y="48.4" transform="matrix(0.7872 -0.6167 0.6167 0.7872 -19.9016 70.748)" class="st1" width="3" height="31.7"/>
		</g>
	</g>
	<g>
		<g>
			
				<rect x="52.2" y="63.3" transform="matrix(0.6121 -0.7908 0.7908 0.6121 -25.1172 78.3457)" class="st1" width="30.2" height="3"/>
		</g>
	</g>
	<g>
		<g>
			<path class="st1" d="M79.8,85.8c-20.3,0-36.9-16.6-36.9-36.9C42.9,28.6,59.5,12,79.8,12c20.3,0,36.9,16.6,36.9,36.9
				C116.7,69.3,100.2,85.8,79.8,85.8z M79.8,15.1c-18.7,0-33.9,15.2-33.9,33.9s15.2,33.9,33.9,33.9c18.7,0,33.9-15.2,33.9-33.9
				S98.5,15.1,79.8,15.1z"/>
		</g>
	</g>
	<g>
		<path class="st1" d="M84.5,82.9h-2.8V43.3c0-1,0.6-1.9,1.5-2.3l24-14.2l1.4,2.4L84.5,43.5V82.9z"/>
	</g>
	<g>
		<path class="st1" d="M78.1,82.9h-2.8l0-39.5l-24-14.2l1.4-2.4l24,14.2c0.9,0.4,1.5,1.3,1.5,2.3V82.9z"/>
	</g>
	<g>
		<g>
			<path class="st1" d="M79.3,38.1c-4,0-7.3-3.3-7.3-7.3s3.3-7.3,7.3-7.3s7.3,3.3,7.3,7.3S83.3,38.1,79.3,38.1z M79.3,26.6
				c-2.3,0-4.2,1.9-4.2,4.2s1.9,4.2,4.2,4.2s4.2-1.9,4.2-4.2S81.6,26.6,79.3,26.6z"/>
		</g>
	</g>
</g>
<g>
	<g>
		<path class="st2" d="M20.7,99.2c1.6,0,3.3,0.4,4.8,1.1c0.1-0.4,0-0.9,0.1-0.9c0,0,0.6-0.3,1-0.3c0.3,0,1.3,0.8,1.3,1.4
			c0,0.1-0.1,0.4-0.4,0.8c1.5,0.9,2.5,2.1,2.5,3.2c0,0.3-0.2,0.2-0.2,0.4v1c-0.2,2.9-4.3,5.3-6.8,7l-0.8,0.5l1.1,0.3
			c1.4,0.4,2.7,1.1,4,1.7c0.6,0.3,1,0.3,1.8,0c3.5-1.6,7.3-2.3,10.1-2.3c0.9,0,1.2,0.7,1.2,1c0,0.3-0.5,0.7-1.1,0.6
			c-2.5-0.6-6.5,0.2-10.3,2c1,0.9,1.7,2,1.7,3.2c0,2.5-5.2,7.8-8.6,7.8c-1.1,0-3.4-2-3.3-2.2c0.1-0.2-0.1-0.4-0.1-0.7
			c0-0.3,0.2-1.7,0.6-2.2c1.7-2.2,4.1-4.1,6.6-5.6c0.7-0.5,0.6-0.6,0-0.9c-1.3-0.7-3-1-4.9-1c-0.8,0-1.2,0.3-1.5,1
			c-0.5,1.5-1,2.9-1.3,4.1c-0.1,0.3-0.4,0.1-0.4,0.3s0.4,1.2,0.4,1.5s-0.3,0.3-0.5,0.5c-0.2,0.1-1,0-1.5,0c-0.2,0-0.4-0.2-0.4-0.6
			c0-0.4,0.7-1.9,0.8-2.3c0.1-0.4,0.3-0.2,0.4-0.6c0.3-1,0.9-2.6,1.8-4.6c-0.1-0.4-0.2-0.9-0.2-1.1c0-0.2,0.4-0.3,0.9-0.4
			c1.9-4.1,4.3-8.9,5.6-11.6c-1.5-0.6-3.4-0.9-4.8-0.9c-3.8,0-8.1,1.1-8.1,2.9c0,0.3,0.2,0.5,0.2,0.7c0.1,0.2-0.4,0.2-0.6,0.2
			c-0.2,0-1.9-1.1-1.8-1.7C10.2,101,14.6,99.2,20.7,99.2z M27.8,117.2c-3.1,1.7-6,4-7.3,6.7c-0.3,0.7,0,1.4,0.2,1.6
			c0.2,0.2,0.9,0.4,1.2,0.4c1.5,0,7.3-3.2,7.3-6.1C29.2,118.9,28.7,117.9,27.8,117.2z M21.6,111.1c-0.4,0.9-0.2,1.1,0.5,0.7
			c2.7-1.5,6.4-4.2,6.4-6.8c0-1.1-0.7-2-1.6-2.7c-0.6,0.9-1.3,1.8-1.4,1.9c-0.1,0.2-0.4,0.3-0.6,0.6
			C23.9,106.4,22.7,108.7,21.6,111.1z"/>
		<path class="st2" d="M40.2,112.5c0.1-1,0.7-1.6,1.2-1.6c2,0,4,7.6,15.6,3.3c0.6-0.2,1.2-0.4,1.6-0.4c1.2,0,2,0.4,2.7,1
			c1.8-2.1,3.4-4.1,4.5-5.8c1-2.7,2-5.1,2.5-6.2c0.7-1.6,1.3-3.4,2-3.4c0.7,0,1,0.4,1,1.2c0.2,0,0.4,0.2,0,1.4
			c-0.6,1.7-2.3,5.3-4.7,8.2c-0.7,2.2-1.8,5.5-2.1,9c-0.5,4.3,1.1,5.7,3.6,4.5c2.2-1,4.4-3.7,4.4-3.9c0.1-0.1,0.3-0.1,0.5,0
			c0.2,0.1,0.6,0.6,0.3,1c-0.9,1-2.8,2.9-4.7,4c-2.9,1.7-5.7,0.6-5.4-4.8c0.1-2.1,0.8-4.8,1.6-7.5c-0.9,1.1-1.7,2.2-2.7,3.3
			c0.3,0.5,0.3,1.1,0.3,1.6c0,0.2,0.2-0.2,0.2,0.4c0.1,1.4-1.3,2.1-1.9,1.8c-0.3-0.1-0.4-0.4-0.4-0.8c0.2-0.4,0.3-0.9,0.3-1.3
			c-1.3,1.5-2.6,2.9-3.8,4.1c-0.6,1.3-1.7,2.1-2.8,2.6c-2.8,1.2-3.2-1.9-2.3-3.9c0.7-1.7,1.6-3,2.6-3.9c-2.3,0.6-5.2,0.8-7.3,0.2
			c0.2,0.4,0.3,0.9,0.2,1.3c-0.2,1.1-4.2,5.1-5.9,6.4c-1.1,0.9-2.3,1.1-3.4,0.8c-2.3-0.7-2.2-3.2-1.9-4.7c0.3-1.8,2-3.6,2-7
			C37.9,112.7,38.9,112.2,40.2,112.5z M41,114.1c0,0.1,0,0.2-0.1,0.3c-0.4,0.9-4.4,5.7-3.1,8.9c0.4,1.1,1.9,0.1,3-0.7
			c0.6-0.5,3.1-2.7,4.1-4.7c0.3-0.6,0.3-1.4-0.1-2C43.1,115.5,41.8,114.8,41,114.1z M60.3,115.9c-0.3-0.5-0.7-0.9-1.4-0.9
			c-2.3,0-5,3.6-5.7,5.1c-1.5,3.5,0.3,2.8,2.8,0.3C57.5,118.9,59,117.3,60.3,115.9z"/>
		<path class="st2" d="M77.1,112.6c0.4,0.1,1.1,0.4,0.7,1c-1,1.9-3.1,5.1-3.6,8.2c-0.2,1.1,0.2,0.9,0.6,0.5c0.4-0.5,6.1-7.1,7.4-7.1
			c1.4,0,2.2,3.9,1.9,7.9c0.7-0.5,1.4-0.7,2-0.8c0.9,0,1.6,0.7,1.7,1.6c0.1,0.6-0.2,1.2-0.6,1.3c-0.4,0.1-0.7-0.2-1.3-0.5
			c-0.5,0-1.2,0.4-2,1c-0.8,4.2-2.9,10.1-4.7,11.8c-0.6,0.6-1.4-0.3-1.5-1.2c-0.6-3.1,2-8.7,5-11.8c0.3-2.4,0.3-4.7-0.1-6.6
			c-0.1-0.6-0.4-0.8-1.1-0.3c-3.8,2.7-5.8,8.1-7.7,8.4c-0.7,0.1-1.5-0.7-1.5-1.6c0-0.2,0.2-0.5,0.2-0.8c0.3-3.2,1.9-7.1,3.7-10.6
			C76.1,112.5,76.7,112.5,77.1,112.6z M82,127.4c-1.6,1.8-3,4.4-3.1,7.2c0,0.6,0.1,0.7,0.4,0.2C80.6,132.5,81.4,130,82,127.4z"/>
		<path class="st2" d="M94.3,124.1c0.6-2.5,12.1-14.4,16.1-19.6c0,0,0,0,0.1-0.1c-0.7-2.2-1.5-4.3-2.5-6.1c-0.2-0.4,0.5-0.7,0.9-0.7
			c0.3,0,0.7-0.2,1.2,1c0.7,1.6,1.4,3.5,2,5.4c0.7,0.2,1.4,0.9,1.4,1.2c0,0.3-0.3,1.1-0.6,1.7c0.5,2.2,0.9,4.5,1.2,6.6
			c2.3-0.3,4.5-0.5,6.4-0.5c2.2,0,5.5,0.4,5.5,0.9c0,0.5-1.6,1-2.1,1c-0.4,0-3-0.5-4.3-0.5c-1.3,0-3.2,0.1-5.4,0.4
			c0.4,2.7,0.5,5.1,0.5,6.5c0,1.7-0.3,5.7-0.3,5.9c0,0.2,0.2,0.4-0.1,0.5c0,0.8-0.5,2.1-0.9,2.1s-1.1-0.5-1.1-0.7
			c0-0.3,0.4-0.1,0.5-0.7c0.5-3.1,0.5-8-0.2-13.4c-3.5,0.5-7.5,1.2-10.6,2.3c-0.6,0.2-0.8,0.4-1.2,1c-1.6,2.2-2.9,4.3-3.6,5.9
			c-0.2,0.5,0,1.2-0.3,1.2s-0.5-0.3-0.8-0.3s-0.5,0.4-1,0.5C94.7,125.5,94.2,124.6,94.3,124.1z M111.6,108.8c-0.2-0.7,0-1.1-0.8-0.5
			c-0.8,0.6-1.7,1.4-1.9,1.5c-0.3,0.2-0.6-0.2-0.9,0.1c-1.2,1.1-2.9,2.8-4.4,4.8c-0.3,0.4-0.3,0.7,0.4,0.6c2.7-0.5,5.7-1.2,8.6-1.6
			C112.3,112.1,112,110.4,111.6,108.8z"/>
		<path class="st2" d="M123.9,112.2c0-0.2,0.5-0.5,0.9-0.5c0.3,0,1.4,0.5,1.6,0.9c0.3,0.7-1.1,3.8-1.8,6c-0.1,0.3,0.1,0.4,0.3,0.1
			c1.2-1.5,6.6-6,8.2-6c0.6,0,1.9,1.4,1.9,2.3c0,1-0.8,1.5-1.6,1.4c-0.5-0.1-0.8-1.4-1.3-1.5c-2.1,0.3-5.9,3.7-8.1,6.2
			c-0.3,0.6-0.8,2.5-1.2,3.1c-0.4-0.1-0.8,0.4-1,0.4c-0.2,0-1-0.7-0.8-1.2c1.1-2.6,3-7.3,3.2-10.7
			C124,112.9,123.9,112.4,123.9,112.2z"/>
		<path class="st2" d="M145.3,102.5c0,0.5-0.5,1.7-0.8,2.3c-0.3,0.6-0.8,0.6-1.1,1.3c-0.2,0.3-1.1,2.1-2.1,4.5
			c2.7-0.3,5.6-0.9,7.9-1.6c0.4,0,0.7,0.5-0.1,1c-1.6,0.8-5.2,1.7-8.4,2.2c-1,2.5-1.9,5.3-2.3,7.7c-0.5,2.8-0.6,4.7,0.9,4.7
			c1.5,0,2.5-0.9,3.4-1.7c0.2,0.2,0.3,0.6,0.1,0.9c-0.4,0.5-1.6,1.4-1.9,1.7c-0.3,0.3-1.6,0.5-2,0.5c-0.3,0-1.5-0.3-1.8-0.9
			c-0.1-0.2,0-0.4,0-0.5c-0.1-0.1-0.1,0-0.2-0.1c-0.1-0.2-0.4-1.3-0.3-2.2c-0.1-2.1,1.2-6.2,2.7-10c-0.5,0.1-1.1,0.1-1.6,0.1
			c-1.6,0-3.2-0.1-4.9-0.7c-1.4-0.2-1.1-1.6-0.1-1.6c1,0,1.2,0.9,5.1,0.9c0.7,0,1.4,0,2.2-0.1c0.7-1.8,1.4-3.5,2-4.9
			c0.4-1.1,0.9-2.8,1-4c0-0.3,0.7-0.6,1-0.6C144.7,101.3,145.3,102,145.3,102.5z"/>
	</g>
</g>
<g>
	<g>
		<path class="st1" d="M16.2,144.7c0-0.1-0.1-0.2-0.1-0.3c0-0.2-0.1-0.3-0.1-0.4c0.2,0,0.4,0,0.6,0c0.2,0,0.4,0,0.6,0
			c0.1-0.3,0.3-0.5,0.4-0.8c0.1-0.3,0.3-0.5,0.4-0.7c0.1-0.2,0.3-0.4,0.4-0.5c0.1-0.1,0.2-0.2,0.3-0.3c0.1,0,0.2,0,0.3,0
			c0.1,0,0.3,0.1,0.4,0.1c0.1,0,0.3,0.1,0.4,0.1c0.1,0.1,0.2,0.1,0.2,0.2c-0.3,0.3-0.5,0.6-0.6,0.9c-0.2,0.3-0.4,0.6-0.6,1
			c0.2,0,0.3,0,0.5,0s0.4,0,0.5,0c0,0,0.1,0.1,0.1,0.2c0,0.1,0,0.1,0,0.2c-0.4,0.2-0.9,0.3-1.5,0.3c-0.2,0.4-0.4,0.8-0.6,1.2
			c-0.2,0.4-0.3,0.8-0.4,1.2c-0.1,0.4-0.2,0.7-0.3,1.1c-0.1,0.3-0.1,0.6-0.1,0.9c0,0.4,0.1,0.6,0.4,0.6c0.3,0,0.5-0.1,0.7-0.2
			c0.2-0.1,0.4-0.2,0.6-0.4c0.1,0.1,0.1,0.1,0.1,0.2c-0.1,0.1-0.1,0.2-0.3,0.3c-0.1,0.1-0.3,0.2-0.4,0.3c-0.1,0.1-0.3,0.2-0.4,0.3
			c-0.1,0.1-0.2,0.1-0.3,0.1c-0.2,0-0.4,0-0.6-0.1c-0.2-0.1-0.4-0.2-0.6-0.3c-0.2-0.1-0.3-0.3-0.4-0.4c-0.1-0.2-0.2-0.3-0.2-0.5
			c0-0.2,0-0.5,0.1-0.8c0.1-0.3,0.1-0.7,0.2-1c0.1-0.4,0.2-0.8,0.3-1.2c0.1-0.4,0.3-0.8,0.4-1.2L16.2,144.7z"/>
		<path class="st1" d="M29.8,144.3c0.1,0,0.2,0,0.3,0c0.1,0,0.2,0.1,0.3,0.1c0.1,0,0.2,0.1,0.2,0.1c0.1,0,0.1,0.1,0.1,0.1
			c-0.2,0.4-0.3,0.7-0.5,1.1c-0.1,0.4-0.3,0.7-0.4,1c-0.1,0.3-0.2,0.6-0.2,0.9c-0.1,0.3-0.1,0.5-0.1,0.8c0,0.2,0,0.4,0.1,0.6
			c0.1,0.2,0.1,0.3,0.3,0.3c-0.1,0.1-0.2,0.1-0.4,0.2c-0.2,0-0.3,0.1-0.4,0.1c-0.5,0-0.7-0.3-0.7-0.9c0-0.5,0.1-1.2,0.5-2
			c-0.2,0.4-0.4,0.8-0.6,1.1c-0.2,0.3-0.4,0.7-0.7,0.9c-0.2,0.3-0.5,0.5-0.7,0.6c-0.2,0.2-0.4,0.3-0.6,0.3c-0.3,0-0.6-0.1-0.8-0.4
			c-0.2-0.3-0.3-0.6-0.3-1.1c0-0.5,0.1-1,0.3-1.5c0.2-0.5,0.5-1,0.8-1.5c0.3-0.5,0.7-0.8,1-1.1c0.4-0.3,0.7-0.5,1.1-0.5
			c0.1,0,0.2,0.1,0.3,0.1c0.1,0.1,0.2,0.2,0.3,0.3c0.1,0.1,0.2,0.2,0.3,0.3c0.1,0.1,0.1,0.2,0.1,0.3c-0.3,0.1-0.7,0.2-1,0.5
			c-0.4,0.3-0.7,0.6-1,1c-0.3,0.4-0.5,0.8-0.7,1.3c-0.2,0.5-0.3,0.9-0.3,1.3c0,0.2,0.1,0.3,0.2,0.3c0.2-0.1,0.5-0.3,0.8-0.6
			c0.3-0.4,0.7-1,1.2-1.7c0.1-0.2,0.2-0.3,0.3-0.5c0.1-0.2,0.2-0.4,0.3-0.6c0.1-0.2,0.2-0.4,0.3-0.6
			C29.6,144.7,29.7,144.5,29.8,144.3z"/>
		<path class="st1" d="M37.5,144.5c0-0.1-0.1-0.2-0.1-0.3c0-0.2-0.1-0.3-0.1-0.4c0.2,0,0.4,0,0.6,0c0.2,0,0.4,0,0.6,0
			c0.1-0.3,0.3-0.5,0.4-0.8c0.1-0.3,0.3-0.5,0.4-0.7c0.1-0.2,0.3-0.4,0.4-0.5c0.1-0.1,0.2-0.2,0.3-0.3c0.1,0,0.2,0,0.3,0
			s0.3,0.1,0.4,0.1c0.1,0,0.3,0.1,0.4,0.1c0.1,0.1,0.2,0.1,0.2,0.2c-0.3,0.3-0.5,0.6-0.6,0.9c-0.2,0.3-0.4,0.6-0.6,1
			c0.2,0,0.3,0,0.5,0c0.2,0,0.4,0,0.5,0c0,0,0.1,0.1,0.1,0.2c0,0.1,0,0.1,0,0.2c-0.4,0.2-0.9,0.3-1.5,0.3c-0.2,0.4-0.4,0.8-0.6,1.2
			c-0.2,0.4-0.3,0.8-0.4,1.2c-0.1,0.4-0.2,0.7-0.3,1.1c-0.1,0.3-0.1,0.6-0.1,0.9c0,0.4,0.1,0.6,0.4,0.6c0.3,0,0.5-0.1,0.7-0.2
			c0.2-0.1,0.4-0.2,0.6-0.4c0.1,0.1,0.1,0.1,0.1,0.2c-0.1,0.1-0.1,0.2-0.3,0.3c-0.1,0.1-0.3,0.2-0.4,0.3c-0.1,0.1-0.3,0.2-0.4,0.3
			c-0.1,0.1-0.2,0.1-0.3,0.1c-0.2,0-0.4,0-0.6-0.1c-0.2-0.1-0.4-0.2-0.6-0.3c-0.2-0.1-0.3-0.3-0.4-0.4c-0.1-0.2-0.2-0.3-0.2-0.5
			c0-0.2,0-0.5,0.1-0.8c0.1-0.3,0.1-0.7,0.2-1s0.2-0.8,0.3-1.2c0.1-0.4,0.3-0.8,0.4-1.2L37.5,144.5z"/>
		<path class="st1" d="M47.5,144.3c0-0.1-0.1-0.2-0.1-0.3c0-0.2-0.1-0.3-0.1-0.4c0.2,0,0.4,0,0.6,0c0.2,0,0.4,0,0.6,0
			c0.1-0.3,0.3-0.5,0.4-0.8c0.1-0.3,0.3-0.5,0.4-0.7c0.1-0.2,0.3-0.4,0.4-0.5c0.1-0.1,0.2-0.2,0.3-0.3c0.1,0,0.2,0,0.3,0
			c0.1,0,0.3,0.1,0.4,0.1c0.1,0,0.3,0.1,0.4,0.1c0.1,0,0.2,0.1,0.2,0.2c-0.3,0.3-0.5,0.6-0.6,0.9c-0.2,0.3-0.4,0.6-0.6,1
			c0.2,0,0.3,0,0.5,0c0.2,0,0.4,0,0.5,0c0,0,0.1,0.1,0.1,0.2c0,0.1,0,0.1,0,0.2c-0.4,0.2-0.9,0.3-1.5,0.3c-0.2,0.4-0.4,0.8-0.6,1.2
			c-0.2,0.4-0.3,0.8-0.4,1.2c-0.1,0.4-0.2,0.7-0.3,1.1c-0.1,0.3-0.1,0.6-0.1,0.9c0,0.4,0.1,0.6,0.4,0.6c0.3,0,0.5-0.1,0.7-0.2
			c0.2-0.1,0.4-0.2,0.6-0.4c0.1,0.1,0.1,0.1,0.1,0.2c-0.1,0.1-0.1,0.2-0.3,0.3c-0.1,0.1-0.3,0.2-0.4,0.3c-0.1,0.1-0.3,0.2-0.4,0.3
			c-0.1,0.1-0.2,0.1-0.3,0.1c-0.2,0-0.4,0-0.6-0.1c-0.2-0.1-0.4-0.2-0.6-0.3c-0.2-0.1-0.3-0.3-0.4-0.4c-0.1-0.2-0.2-0.3-0.2-0.5
			c0-0.2,0-0.5,0.1-0.8c0.1-0.3,0.1-0.7,0.2-1s0.2-0.8,0.3-1.2c0.1-0.4,0.3-0.8,0.4-1.2L47.5,144.3z"/>
		<path class="st1" d="M58.3,149.5c-0.5,0-0.9-0.3-1.2-0.6c-0.3-0.4-0.4-0.8-0.5-1.4c0-0.3,0-0.7,0.1-1.1c0.1-0.4,0.2-0.7,0.4-1.1
			c0.2-0.3,0.4-0.7,0.7-1c0.3-0.3,0.5-0.6,0.8-0.8c0.5-0.4,0.9-0.5,1.3-0.5c0.3,0.1,0.5,0.4,0.8,0.9c0,0,0.1,0,0.1,0
			c0,0,0.1,0,0.1,0c0.5,0,0.7,0.4,0.7,1.2c0,0.5-0.1,1-0.2,1.5c-0.2,0.5-0.4,0.9-0.7,1.3c-0.3,0.4-0.7,0.7-1.1,1
			C59.3,149.2,58.8,149.4,58.3,149.5z M58.9,145.5c-0.1,0.2-0.3,0.4-0.4,0.6c-0.1,0.2-0.2,0.5-0.3,0.7c-0.1,0.2-0.2,0.5-0.2,0.7
			c0,0.2-0.1,0.4-0.1,0.6c0,0.2,0,0.4,0.1,0.6c0.1,0.2,0.1,0.3,0.2,0.3c0.4-0.1,0.7-0.3,1-0.5c0.3-0.2,0.6-0.5,0.8-0.9
			c0.2-0.4,0.4-0.7,0.5-1.2s0.2-0.9,0.2-1.4c0-0.2,0-0.4,0-0.5c0-0.1-0.1-0.2-0.1-0.3c-0.4,0.1-0.7,0.3-1,0.5
			C59.3,145,59.1,145.2,58.9,145.5z"/>
		<path class="st1" d="M69.4,149.4c-0.5,0-0.9-0.3-1.2-0.6c-0.3-0.4-0.4-0.8-0.4-1.4c0-0.3,0-0.7,0.1-1.1c0.1-0.4,0.2-0.7,0.4-1.1
			c0.2-0.3,0.4-0.7,0.7-1c0.3-0.3,0.5-0.6,0.8-0.8c0.5-0.4,0.9-0.5,1.3-0.5c0.3,0.1,0.5,0.4,0.8,0.9c0,0,0.1,0,0.1,0
			c0,0,0.1,0,0.1,0c0.5,0,0.7,0.4,0.7,1.2c0,0.5-0.1,1-0.2,1.5c-0.2,0.5-0.4,0.9-0.7,1.3c-0.3,0.4-0.7,0.7-1.1,1
			C70.4,149.1,69.9,149.3,69.4,149.4z M70,145.4c-0.1,0.2-0.3,0.4-0.4,0.6c-0.1,0.2-0.2,0.5-0.3,0.7c-0.1,0.2-0.2,0.5-0.2,0.7
			c0,0.2-0.1,0.4-0.1,0.6c0,0.2,0,0.4,0.1,0.6c0.1,0.2,0.1,0.3,0.2,0.3c0.4-0.1,0.7-0.3,1-0.5c0.3-0.2,0.6-0.5,0.8-0.9
			c0.2-0.4,0.4-0.7,0.5-1.2c0.1-0.4,0.2-0.9,0.2-1.4c0-0.2,0-0.4,0-0.5c0-0.1-0.1-0.2-0.1-0.3c-0.4,0.1-0.7,0.3-1,0.5
			C70.5,144.9,70.2,145.1,70,145.4z"/>
		<path class="st1" d="M91.9,143.6c0,0.2,0,0.3-0.1,0.5c0,0.2-0.1,0.3-0.2,0.5c-0.1,0.1-0.1,0.3-0.2,0.4c-0.1,0.1-0.1,0.1-0.2,0.1
			c-0.1,0-0.1-0.1-0.2-0.2c0,0,0-0.1,0-0.1c0-0.1,0-0.1,0.1-0.2c0-0.1,0-0.1,0.1-0.2c0-0.1,0-0.1,0-0.2c0-0.1,0-0.2-0.1-0.3
			c-0.1-0.1-0.1-0.1-0.2-0.1c-0.3,0-0.6,0.2-0.8,0.6c-0.2,0.4-0.3,1-0.2,1.9c0,0.1,0,0.1,0,0.2c0.2,0,0.3,0,0.5,0c0.1,0,0.3,0,0.4,0
			c0,0,0,0.1,0,0.1c0,0.1,0,0.1,0,0.2c-0.2,0-0.4,0.1-0.5,0.1c-0.1,0-0.2,0.1-0.3,0.1c-0.1,0-0.1,0.1-0.1,0.1c0,0,0,0.1,0,0.1
			c0,0.1,0,0.1,0,0.2c0,0.1,0,0.2,0,0.3c0,0.7-0.2,1.3-0.6,1.7c-0.4,0.4-0.9,0.7-1.6,0.8c-0.1,0-0.2,0-0.4-0.1
			c-0.1-0.1-0.3-0.1-0.4-0.2c-0.1-0.1-0.2-0.2-0.3-0.3c-0.1-0.1-0.1-0.2-0.2-0.3c0-0.3,0.1-0.6,0.2-0.9c0.1-0.3,0.3-0.6,0.5-0.8
			c0.2-0.2,0.5-0.4,0.8-0.6c0.3-0.1,0.7-0.2,1-0.2c0-0.2,0-0.4-0.1-0.6c0-0.2-0.1-0.4-0.1-0.6c0-0.2-0.1-0.4-0.1-0.6
			c0-0.2-0.1-0.4-0.1-0.5c0-0.2,0-0.5,0.1-0.7c0.1-0.2,0.2-0.4,0.4-0.6c0.2-0.2,0.3-0.4,0.5-0.5s0.4-0.2,0.6-0.3
			c0.1,0,0.2,0.1,0.4,0.2c0.2,0.1,0.3,0.3,0.5,0.4c0.2,0.2,0.3,0.3,0.4,0.5C91.8,143.4,91.9,143.5,91.9,143.6z M87.8,149.5
			c0.2-0.1,0.4-0.2,0.6-0.4c0.2-0.2,0.3-0.3,0.5-0.6c0.1-0.2,0.2-0.4,0.3-0.7c0.1-0.2,0.1-0.5,0.1-0.7c-0.2,0-0.4,0.1-0.6,0.2
			c-0.2,0.1-0.4,0.3-0.6,0.5c-0.2,0.2-0.3,0.4-0.4,0.6c-0.1,0.2-0.2,0.4-0.2,0.5C87.5,149.2,87.6,149.4,87.8,149.5z"/>
		<path class="st1" d="M98.2,143.8c0-0.1-0.1-0.2-0.1-0.3c0-0.2-0.1-0.3-0.1-0.4c0.2,0,0.4,0,0.6,0c0.2,0,0.4,0,0.6,0
			c0.1-0.3,0.3-0.5,0.4-0.8c0.1-0.3,0.3-0.5,0.4-0.7c0.1-0.2,0.3-0.4,0.4-0.5c0.1-0.1,0.2-0.2,0.3-0.3c0.1,0,0.2,0,0.3,0
			s0.3,0.1,0.4,0.1c0.1,0,0.3,0.1,0.4,0.1c0.1,0.1,0.2,0.1,0.2,0.2c-0.3,0.3-0.5,0.6-0.6,0.9c-0.2,0.3-0.4,0.6-0.6,1
			c0.2,0,0.3,0,0.5,0c0.2,0,0.4,0,0.5,0c0,0,0.1,0.1,0.1,0.2c0,0.1,0,0.1,0,0.2c-0.4,0.2-0.9,0.3-1.5,0.3c-0.2,0.4-0.4,0.8-0.6,1.2
			c-0.2,0.4-0.3,0.8-0.4,1.2c-0.1,0.4-0.2,0.7-0.3,1.1s-0.1,0.6-0.1,0.9c0,0.4,0.1,0.6,0.4,0.6c0.3,0,0.5-0.1,0.7-0.2
			c0.2-0.1,0.4-0.2,0.6-0.4c0.1,0.1,0.1,0.1,0.1,0.2c-0.1,0.1-0.1,0.2-0.3,0.3c-0.1,0.1-0.3,0.2-0.4,0.3s-0.3,0.2-0.4,0.3
			c-0.1,0.1-0.2,0.1-0.3,0.1c-0.2,0-0.4,0-0.6-0.1c-0.2-0.1-0.4-0.2-0.6-0.3c-0.2-0.1-0.3-0.3-0.4-0.4c-0.1-0.2-0.2-0.3-0.2-0.5
			c0-0.2,0-0.5,0.1-0.8c0.1-0.3,0.1-0.7,0.2-1s0.2-0.8,0.3-1.2c0.1-0.4,0.3-0.8,0.4-1.2L98.2,143.8z"/>
		<path class="st1" d="M111,148.2c-0.2-0.1-0.3-0.3-0.3-0.5c-0.1-0.2-0.1-0.4-0.1-0.5c0-0.2,0-0.3,0.1-0.5c0,0-0.1,0.1-0.2,0.2
			c-0.1,0.1-0.2,0.3-0.4,0.5c-0.1,0.2-0.3,0.4-0.4,0.6c-0.1,0.2-0.2,0.3-0.3,0.4c-0.1,0.1-0.2,0.2-0.3,0.3c-0.1,0.1-0.2,0.1-0.2,0.1
			c-0.1,0-0.3,0-0.4-0.1c-0.1,0-0.3-0.1-0.4-0.2c-0.1-0.1-0.2-0.2-0.3-0.3c-0.1-0.1-0.2-0.3-0.2-0.4c0-0.2,0-0.4,0-0.6
			c0-0.2,0-0.3,0.1-0.5c0.1-0.3,0.2-0.7,0.3-1.1c0.1-0.4,0.3-0.8,0.5-1.2c0.2-0.4,0.4-0.8,0.6-1.1c0.2-0.3,0.5-0.6,0.8-0.8
			c0.1,0,0.2,0,0.3,0c0.1,0,0.2,0,0.3,0.1c0.1,0,0.2,0.1,0.3,0.1c0.1,0,0.2,0.1,0.3,0.2c-0.1,0.1-0.3,0.4-0.6,0.9
			c-0.3,0.5-0.6,1.2-1,2.1c0,0.1-0.1,0.2-0.1,0.4c-0.1,0.2-0.1,0.4-0.2,0.6c-0.1,0.2-0.1,0.4-0.1,0.6c0,0.2-0.1,0.3-0.1,0.4
			c0,0.1,0,0.1,0,0.2c0,0,0,0.1,0.1,0.1c0.1-0.1,0.3-0.2,0.5-0.4c0.2-0.2,0.5-0.6,0.8-1.1c0.1-0.1,0.2-0.3,0.3-0.4
			c0.1-0.2,0.2-0.3,0.3-0.5c0.1-0.2,0.2-0.4,0.3-0.5c0.1-0.2,0.2-0.4,0.3-0.6c0-0.1,0.1-0.2,0.1-0.4c0.1-0.1,0.1-0.3,0.2-0.4
			c0.1-0.2,0.2-0.3,0.3-0.5c0.1-0.2,0.2-0.3,0.4-0.4c0.1,0,0.2,0,0.4,0c0.1,0,0.3,0.1,0.4,0.1c0.1,0,0.2,0.1,0.3,0.1
			c0.1,0,0.1,0.1,0.2,0.1c-0.1,0.4-0.3,0.7-0.5,1.1c-0.2,0.4-0.4,0.7-0.5,1.1c-0.2,0.4-0.3,0.7-0.4,1.1c-0.1,0.3-0.2,0.7-0.2,1
			c0,0.2,0,0.3,0.1,0.5c0,0.1,0.1,0.2,0.1,0.3c0,0.1,0.1,0.2,0.1,0.2c0,0.1,0,0.1,0,0.2c0,0,0,0,0,0c0,0,0,0,0,0c-0.1,0-0.1,0-0.2,0
			c-0.1,0-0.2-0.1-0.3-0.1c-0.1,0-0.2-0.1-0.3-0.2C111.2,148.3,111.1,148.3,111,148.2z"/>
		<path class="st1" d="M122,142.4c0.2,0,0.4,0,0.6,0.1c0.2,0.1,0.4,0.2,0.6,0.4c0-0.3-0.1-0.7-0.2-1c-0.1-0.3-0.2-0.6-0.3-0.9
			c-0.1-0.3-0.3-0.7-0.5-1.1c-0.2-0.4-0.5-0.8-0.8-1.3c0-0.1,0.1-0.2,0.2-0.3c0.1-0.1,0.2-0.2,0.3-0.3c0.1-0.1,0.2-0.2,0.4-0.2
			c0.1-0.1,0.2-0.1,0.3-0.1c0.2,0.3,0.5,0.6,0.7,1c0.2,0.4,0.4,0.8,0.6,1.3c0.2,0.5,0.3,0.9,0.4,1.4c0.1,0.5,0.1,0.9,0.1,1.4
			c0,0.4,0,0.9-0.1,1.4c-0.1,0.5-0.2,0.9-0.4,1.4c-0.2,0.4-0.4,0.9-0.6,1.3c-0.2,0.4-0.5,0.8-0.7,1.1c-0.3,0.3-0.5,0.6-0.8,0.8
			c-0.3,0.2-0.6,0.3-0.9,0.4c-0.6-0.1-1-0.2-1.4-0.6c-0.3-0.3-0.5-0.7-0.5-1.3c0-0.3,0-0.6,0.1-0.9c0.1-0.3,0.2-0.7,0.3-1
			c0.1-0.3,0.3-0.7,0.5-1c0.2-0.3,0.4-0.6,0.6-0.9c0.2-0.3,0.4-0.5,0.7-0.7S121.8,142.5,122,142.4z M120.8,148.6
			c0.3-0.1,0.6-0.3,0.9-0.7c0.3-0.4,0.6-0.8,0.8-1.2c0.2-0.5,0.4-1,0.6-1.5c0.1-0.5,0.2-1.1,0.2-1.6c0-0.1,0-0.2,0-0.3
			c0,0,0-0.1,0-0.1c-0.2,0.1-0.4,0.2-0.6,0.4c-0.2,0.2-0.5,0.4-0.7,0.7c-0.2,0.3-0.4,0.6-0.6,0.9c-0.2,0.3-0.4,0.6-0.5,1
			c-0.2,0.3-0.3,0.6-0.4,0.9c-0.1,0.3-0.1,0.5-0.1,0.8C120.2,148.3,120.4,148.5,120.8,148.6z"/>
		<path class="st1" d="M130.3,147.4c0-0.1,0-0.2,0-0.3c0-0.1,0-0.3,0.1-0.5c0-0.2,0.1-0.4,0.1-0.7c0.1-0.3,0.1-0.6,0.2-1
			c0-0.1,0.1-0.2,0.1-0.4c0.1-0.2,0.1-0.4,0.2-0.6c0.1-0.2,0.2-0.4,0.4-0.6c0.1-0.2,0.3-0.3,0.5-0.4c0.1,0,0.3,0.1,0.6,0.3
			c0.2,0.1,0.4,0.3,0.6,0.6c-0.2,0.2-0.4,0.4-0.5,0.7c-0.1,0.2-0.2,0.5-0.3,0.7c-0.1,0.2-0.2,0.5-0.3,0.7c-0.1,0.3-0.2,0.5-0.3,0.8
			c-0.1,0.2-0.2,0.5-0.2,0.7c-0.1,0.3-0.1,0.5-0.1,0.7c0,0.2,0,0.3,0,0.3c0,0.1,0,0.1-0.1,0.1c0,0-0.1,0-0.2-0.1
			c-0.1,0-0.2-0.1-0.3-0.2c-0.1-0.1-0.2-0.2-0.3-0.3C130.4,147.8,130.3,147.6,130.3,147.4z M132.7,141.8c0-0.1,0-0.1,0-0.2
			c0,0-0.1-0.1-0.1-0.2c0-0.1,0-0.2,0-0.2c0-0.1,0-0.2,0-0.3c0-0.1,0-0.3,0.1-0.4c0-0.2,0.1-0.3,0.1-0.5c0-0.2,0.1-0.3,0.1-0.5
			c0.1,0,0.2,0,0.4,0.1c0.1,0.1,0.3,0.1,0.5,0.2c0.2,0.1,0.3,0.2,0.4,0.3c0.1,0.1,0.2,0.2,0.3,0.3c-0.1,0.1-0.2,0.2-0.4,0.4
			c-0.2,0.2-0.3,0.3-0.4,0.5c-0.1,0.2-0.3,0.4-0.4,0.5c-0.1,0.2-0.2,0.3-0.2,0.3c-0.1,0-0.2-0.1-0.3-0.1
			C132.8,142,132.7,141.9,132.7,141.8z"/>
		<path class="st1" d="M140.4,148.6c-0.5,0-0.9-0.3-1.2-0.6c-0.3-0.4-0.4-0.8-0.5-1.4c0-0.3,0-0.7,0.1-1.1c0.1-0.4,0.2-0.7,0.4-1.1
			c0.2-0.3,0.4-0.7,0.7-1c0.3-0.3,0.5-0.6,0.8-0.8c0.5-0.4,0.9-0.5,1.3-0.5c0.3,0.1,0.5,0.4,0.8,0.9c0,0,0.1,0,0.1,0
			c0,0,0.1,0,0.1,0c0.5,0,0.7,0.4,0.7,1.2c0,0.5-0.1,1-0.2,1.5c-0.2,0.5-0.4,0.9-0.7,1.3c-0.3,0.4-0.7,0.7-1.1,1
			C141.4,148.3,140.9,148.5,140.4,148.6z M141,144.6c-0.1,0.2-0.3,0.4-0.4,0.6c-0.1,0.2-0.2,0.5-0.3,0.7c-0.1,0.2-0.2,0.5-0.2,0.7
			c0,0.2-0.1,0.4-0.1,0.6c0,0.2,0,0.4,0.1,0.6c0.1,0.2,0.1,0.3,0.2,0.3c0.4-0.1,0.7-0.3,1-0.5c0.3-0.2,0.6-0.5,0.8-0.9
			c0.2-0.4,0.4-0.7,0.5-1.2c0.1-0.4,0.2-0.9,0.2-1.4c0-0.2,0-0.4,0-0.5c0-0.1-0.1-0.2-0.1-0.3c-0.4,0.1-0.7,0.3-1,0.5
			C141.4,144,141.2,144.3,141,144.6z"/>
	</g>
</g>
<g>
	<g>
		<g>
			<rect x="11.4" y="194.2" class="st0" width="42.2" height="42.2"/>
		</g>
	</g>
	<g>
		<g>
			<rect x="35.4" y="211.9" class="st1" width="18.3" height="2.1"/>
		</g>
	</g>
	<g>
		<g>
			
				<rect x="19.7" y="203.1" transform="matrix(5.050171e-03 -1 1 5.050171e-03 -191.9436 232.2445)" class="st1" width="2.1" height="18.9"/>
		</g>
	</g>
	<g>
		<g>
			
				<rect x="40.2" y="214.9" transform="matrix(0.7872 -0.6167 0.6167 0.7872 -130.4667 73.5042)" class="st1" width="2.1" height="21.8"/>
		</g>
	</g>
	<g>
		<g>
			
				<rect x="13.5" y="225.1" transform="matrix(0.6121 -0.7908 0.7908 0.6121 -169.5732 106.6438)" class="st1" width="20.8" height="2.1"/>
		</g>
	</g>
	<g>
		<g>
			<path class="st1" d="M32.5,240.6c-14,0-25.3-11.4-25.3-25.3c0-14,11.4-25.3,25.3-25.3c14,0,25.3,11.4,25.3,25.3
				C57.9,229.3,46.5,240.6,32.5,240.6z M32.5,192c-12.8,0-23.3,10.4-23.3,23.3s10.4,23.3,23.3,23.3c12.8,0,23.3-10.4,23.3-23.3
				S45.4,192,32.5,192z"/>
		</g>
	</g>
	<g>
		<path class="st1" d="M35.8,238.6h-1.9v-27.2c0-0.7,0.4-1.3,1-1.6l16.5-9.7l1,1.7l-16.5,9.8V238.6z"/>
	</g>
	<g>
		<path class="st1" d="M31.3,238.6h-1.9l0-27.1l-16.5-9.8l1-1.7l16.5,9.7c0.6,0.3,1,0.9,1,1.6V238.6z"/>
	</g>
	<g>
		<g>
			<path class="st1" d="M32.2,207.8c-2.7,0-5-2.2-5-5c0-2.7,2.2-5,5-5s5,2.2,5,5C37.1,205.6,34.9,207.8,32.2,207.8z M32.2,199.9
				c-1.6,0-2.9,1.3-2.9,2.9s1.3,2.9,2.9,2.9c1.6,0,2.9-1.3,2.9-2.9S33.8,199.9,32.2,199.9z"/>
		</g>
	</g>
</g>
<g>
	<g>
		<path class="st2" d="M69.5,197.5c1.1,0,2.3,0.3,3.3,0.7c0-0.3,0-0.6,0-0.6c0,0,0.4-0.2,0.7-0.2c0.2,0,0.9,0.6,0.9,0.9
			c0,0.1-0.1,0.3-0.3,0.6c1,0.6,1.7,1.4,1.7,2.2c0,0.2-0.1,0.1-0.1,0.3v0.7c-0.2,2-2.9,3.7-4.7,4.8l-0.6,0.4l0.7,0.2
			c0.9,0.3,1.9,0.7,2.7,1.2c0.4,0.2,0.7,0.2,1.3,0c2.4-1.1,5-1.6,6.9-1.6c0.6,0,0.8,0.5,0.8,0.7c0,0.2-0.3,0.5-0.7,0.4
			c-1.7-0.4-4.5,0.2-7.1,1.4c0.7,0.6,1.1,1.4,1.1,2.2c0,1.7-3.6,5.4-5.9,5.4c-0.7,0-2.3-1.4-2.3-1.5c0-0.2-0.1-0.3-0.1-0.5
			c0-0.2,0.1-1.1,0.4-1.5c1.2-1.5,2.8-2.8,4.6-3.8c0.5-0.3,0.4-0.4,0-0.6c-0.9-0.5-2.1-0.7-3.4-0.7c-0.6,0-0.8,0.2-1,0.7
			c-0.4,1-0.7,2-0.9,2.8c0,0.2-0.3,0.1-0.3,0.2s0.3,0.8,0.3,1.1c0,0.2-0.2,0.2-0.4,0.3s-0.7,0-1,0c-0.1,0-0.3-0.1-0.3-0.4
			s0.5-1.3,0.6-1.6c0.1-0.3,0.2-0.2,0.3-0.4c0.2-0.7,0.6-1.8,1.2-3.1c-0.1-0.3-0.1-0.6-0.1-0.7c0-0.2,0.3-0.2,0.6-0.3
			c1.3-2.8,2.9-6.1,3.8-8c-1.1-0.4-2.3-0.6-3.3-0.6c-2.6,0-5.5,0.8-5.5,2c0,0.2,0.1,0.4,0.2,0.5c0,0.1-0.3,0.1-0.4,0.1
			c-0.1,0-1.3-0.7-1.3-1.2C62.3,198.8,65.3,197.5,69.5,197.5z M74.4,209.9c-2.2,1.1-4.1,2.7-5,4.6c-0.2,0.5,0,1,0.2,1.1
			c0.2,0.1,0.6,0.3,0.8,0.3c1.1,0,5-2.2,5-4.2C75.3,211,75,210.4,74.4,209.9z M70.1,205.7c-0.3,0.6-0.1,0.7,0.4,0.5
			c1.9-1,4.4-2.9,4.4-4.7c0-0.8-0.5-1.4-1.1-1.8c-0.4,0.6-0.9,1.2-1,1.3c-0.1,0.2-0.3,0.2-0.4,0.4C71.7,202.5,70.9,204.1,70.1,205.7
			z"/>
		<path class="st2" d="M82.9,206.6c0-0.7,0.5-1.1,0.8-1.1c1.4,0,2.7,5.2,10.7,2.2c0.4-0.2,0.8-0.3,1.1-0.3c0.8,0,1.4,0.3,1.8,0.7
			c1.3-1.5,2.3-2.8,3.1-4c0.7-1.9,1.4-3.5,1.7-4.3c0.5-1.1,0.9-2.4,1.4-2.4c0.5,0,0.7,0.3,0.7,0.8c0.1,0,0.3,0.2,0,1
			c-0.4,1.1-1.6,3.6-3.2,5.6c-0.5,1.5-1.2,3.8-1.5,6.2c-0.3,2.9,0.7,3.9,2.5,3.1c1.5-0.7,3-2.5,3-2.7c0.1,0,0.2-0.1,0.3,0
			c0.2,0.1,0.4,0.4,0.2,0.7c-0.6,0.7-1.9,2-3.3,2.8c-2,1.2-3.9,0.4-3.7-3.3c0.1-1.4,0.5-3.3,1.1-5.1c-0.6,0.8-1.2,1.5-1.8,2.3
			c0.2,0.4,0.2,0.7,0.2,1.1c0,0.2,0.1-0.1,0.2,0.3c0,0.9-0.9,1.5-1.3,1.3c-0.2-0.1-0.3-0.3-0.3-0.6c0.1-0.3,0.2-0.6,0.2-0.9
			c-0.9,1-1.8,2-2.6,2.8c-0.4,0.9-1.2,1.5-1.9,1.8c-1.9,0.8-2.2-1.3-1.6-2.7c0.5-1.1,1.1-2,1.8-2.7c-1.6,0.4-3.6,0.6-5,0.1
			c0.2,0.3,0.2,0.6,0.2,0.9c-0.2,0.7-2.9,3.5-4.1,4.4c-0.8,0.6-1.6,0.8-2.3,0.6c-1.6-0.5-1.5-2.2-1.3-3.2c0.2-1.2,1.4-2.5,1.4-4.8
			C81.3,206.8,82,206.4,82.9,206.6z M83.4,207.7c0,0.1,0,0.2,0,0.2c-0.3,0.6-3,3.9-2.1,6.1c0.3,0.8,1.3,0.1,2.1-0.5
			c0.4-0.4,2.2-1.9,2.8-3.2c0.2-0.4,0.2-0.9-0.1-1.4C84.9,208.7,84,208.2,83.4,207.7z M96.7,209c-0.2-0.4-0.5-0.6-1-0.6
			c-1.6,0-3.4,2.5-3.9,3.5c-1,2.4,0.2,1.9,1.9,0.2C94.8,211,95.8,210,96.7,209z"/>
		<path class="st2" d="M108.2,206.7c0.3,0,0.7,0.3,0.5,0.7c-0.7,1.3-2.1,3.5-2.5,5.7c-0.1,0.8,0.2,0.6,0.4,0.3
			c0.3-0.3,4.2-4.9,5.1-4.9c1,0,1.5,2.7,1.3,5.4c0.5-0.3,0.9-0.5,1.4-0.5c0.6,0,1.1,0.5,1.1,1.1c0.1,0.4-0.2,0.8-0.4,0.9
			c-0.3,0.1-0.5-0.1-0.9-0.4c-0.4,0-0.8,0.3-1.4,0.7c-0.6,2.9-2,6.9-3.3,8.1c-0.4,0.4-0.9-0.2-1.1-0.8c-0.4-2.1,1.4-6,3.4-8.1
			c0.2-1.6,0.2-3.2-0.1-4.6c-0.1-0.4-0.3-0.6-0.8-0.2c-2.6,1.8-4,5.6-5.3,5.8c-0.5,0.1-1-0.5-1-1.1c0-0.2,0.1-0.4,0.1-0.5
			c0.2-2.2,1.3-4.9,2.5-7.3C107.6,206.7,108,206.7,108.2,206.7z M111.6,216.9c-1.1,1.3-2.1,3-2.1,4.9c0,0.4,0.1,0.5,0.3,0.1
			C110.6,220.4,111.2,218.7,111.6,216.9z"/>
		<path class="st2" d="M120.1,214.6c0.4-1.7,8.3-9.9,11-13.5c0,0,0,0,0,0c-0.5-1.5-1-2.9-1.7-4.2c-0.1-0.3,0.4-0.5,0.6-0.5
			c0.2,0,0.5-0.1,0.8,0.7c0.5,1.1,1,2.4,1.4,3.7c0.5,0.2,1,0.6,1,0.8c0,0.2-0.2,0.7-0.4,1.1c0.4,1.5,0.6,3.1,0.8,4.5
			c1.6-0.2,3.1-0.3,4.4-0.3c1.5,0,3.8,0.3,3.8,0.6s-1.1,0.7-1.4,0.7c-0.3,0-2.1-0.3-2.9-0.3c-0.9,0-2.2,0.1-3.7,0.3
			c0.3,1.9,0.4,3.5,0.4,4.5c0,1.1-0.2,3.9-0.2,4c0,0.2,0.1,0.3,0,0.4c0,0.6-0.4,1.5-0.6,1.5s-0.7-0.3-0.8-0.5c0-0.2,0.3-0.1,0.3-0.5
			c0.4-2.1,0.4-5.5-0.1-9.2c-2.4,0.3-5.1,0.8-7.3,1.6c-0.4,0.1-0.5,0.3-0.8,0.7c-1.1,1.5-2,3-2.5,4c-0.1,0.3,0,0.8-0.2,0.8
			c-0.2,0-0.4-0.2-0.6-0.2c-0.2,0-0.4,0.3-0.7,0.4C120.3,215.6,120,215,120.1,214.6z M131.9,204.1c-0.1-0.5,0-0.7-0.5-0.3
			c-0.5,0.4-1.2,1-1.3,1.1c-0.2,0.1-0.4-0.2-0.6,0c-0.8,0.8-2,1.9-3,3.3c-0.2,0.3-0.2,0.5,0.3,0.4c1.9-0.4,3.9-0.8,5.9-1.1
			C132.4,206.4,132.2,205.2,131.9,204.1z"/>
		<path class="st2" d="M140.4,206.4c0-0.2,0.4-0.4,0.6-0.4c0.2,0,1,0.4,1.1,0.6c0.2,0.5-0.7,2.6-1.2,4.1c-0.1,0.2,0.1,0.3,0.2,0.1
			c0.8-1,4.5-4.1,5.7-4.1c0.4,0,1.3,0.9,1.3,1.6c0,0.7-0.6,1.1-1.1,1c-0.4-0.1-0.6-1-0.9-1c-1.4,0.2-4.1,2.6-5.6,4.3
			c-0.2,0.4-0.5,1.7-0.8,2.1c-0.3,0-0.5,0.3-0.7,0.3c-0.1,0-0.7-0.5-0.6-0.8c0.7-1.8,2-5,2.2-7.3
			C140.5,206.9,140.4,206.6,140.4,206.4z"/>
		<path class="st2" d="M155.1,199.8c0,0.4-0.3,1.2-0.6,1.6c-0.2,0.4-0.5,0.4-0.8,0.9c-0.1,0.2-0.7,1.5-1.4,3.1
			c1.9-0.2,3.9-0.6,5.4-1.1c0.3,0,0.5,0.4,0,0.7c-1.1,0.6-3.6,1.2-5.8,1.5c-0.7,1.7-1.3,3.6-1.6,5.3c-0.3,1.9-0.4,3.2,0.6,3.2
			c1.1,0,1.7-0.6,2.3-1.1c0.2,0.1,0.2,0.4,0.1,0.6c-0.3,0.4-1.1,1-1.3,1.1c-0.2,0.2-1.1,0.4-1.4,0.4c-0.2,0-1.1-0.2-1.2-0.6
			c-0.1-0.2,0-0.3,0-0.3c0,0-0.1,0-0.2-0.1c-0.1-0.1-0.3-0.9-0.2-1.5c-0.1-1.5,0.8-4.2,1.8-6.9c-0.4,0-0.7,0-1.1,0
			c-1.1,0-2.2,0-3.4-0.5c-0.9-0.1-0.8-1.1-0.1-1.1c0.7,0,0.8,0.6,3.5,0.6c0.5,0,1,0,1.5,0c0.5-1.3,1-2.4,1.4-3.4
			c0.3-0.7,0.6-1.9,0.7-2.8c0-0.2,0.5-0.4,0.7-0.4C154.7,199,155.1,199.4,155.1,199.8z"/>
	</g>
</g>
<g>
	<g>
		<path class="st1" d="M65.7,228.8c0,0-0.1-0.1-0.1-0.2c0-0.1,0-0.2,0-0.3c0.2,0,0.3,0,0.4,0c0.1,0,0.3,0,0.4,0
			c0.1-0.2,0.2-0.3,0.3-0.5c0.1-0.2,0.2-0.3,0.3-0.5c0.1-0.1,0.2-0.3,0.3-0.4c0.1-0.1,0.1-0.2,0.2-0.2c0.1,0,0.1,0,0.2,0
			c0.1,0,0.2,0,0.3,0.1c0.1,0,0.2,0.1,0.3,0.1c0.1,0,0.1,0.1,0.2,0.1c-0.2,0.2-0.3,0.4-0.4,0.6c-0.1,0.2-0.3,0.4-0.4,0.7
			c0.1,0,0.2,0,0.4,0c0.1,0,0.2,0,0.4,0c0,0,0.1,0.1,0.1,0.1c0,0,0,0.1,0,0.1c-0.3,0.1-0.6,0.2-1,0.2c-0.1,0.3-0.3,0.6-0.4,0.8
			c-0.1,0.3-0.2,0.5-0.3,0.8c-0.1,0.3-0.1,0.5-0.2,0.7c0,0.2-0.1,0.4-0.1,0.6c0,0.3,0.1,0.4,0.3,0.4c0.2,0,0.3-0.1,0.5-0.1
			c0.2-0.1,0.3-0.1,0.4-0.3c0,0.1,0.1,0.1,0.1,0.1c0,0.1-0.1,0.1-0.2,0.2c-0.1,0.1-0.2,0.1-0.3,0.2c-0.1,0.1-0.2,0.1-0.3,0.2
			c-0.1,0-0.2,0.1-0.2,0.1c-0.1,0-0.3,0-0.4-0.1c-0.1-0.1-0.3-0.1-0.4-0.2c-0.1-0.1-0.2-0.2-0.3-0.3c-0.1-0.1-0.1-0.2-0.1-0.3
			c0-0.1,0-0.3,0.1-0.5c0-0.2,0.1-0.4,0.2-0.7s0.1-0.5,0.2-0.8c0.1-0.3,0.2-0.5,0.3-0.8L65.7,228.8z"/>
		<path class="st1" d="M75,228.5c0.1,0,0.1,0,0.2,0c0.1,0,0.2,0,0.2,0.1c0.1,0,0.1,0.1,0.2,0.1c0,0,0.1,0.1,0.1,0.1
			c-0.1,0.2-0.2,0.5-0.3,0.7c-0.1,0.2-0.2,0.5-0.2,0.7c-0.1,0.2-0.1,0.4-0.2,0.6c0,0.2-0.1,0.4-0.1,0.5c0,0.2,0,0.3,0.1,0.4
			c0,0.1,0.1,0.2,0.2,0.2c-0.1,0-0.2,0.1-0.3,0.1c-0.1,0-0.2,0-0.3,0c-0.3,0-0.5-0.2-0.5-0.6c0-0.3,0.1-0.8,0.3-1.4
			c-0.1,0.3-0.2,0.5-0.4,0.8c-0.1,0.2-0.3,0.4-0.5,0.6c-0.2,0.2-0.3,0.3-0.5,0.4c-0.2,0.1-0.3,0.2-0.4,0.2c-0.2,0-0.4-0.1-0.5-0.3
			s-0.2-0.4-0.2-0.8c0-0.3,0.1-0.7,0.2-1c0.1-0.4,0.3-0.7,0.5-1c0.2-0.3,0.5-0.6,0.7-0.8c0.3-0.2,0.5-0.3,0.7-0.3
			c0.1,0,0.1,0.1,0.2,0.1c0.1,0.1,0.1,0.1,0.2,0.2c0.1,0.1,0.1,0.1,0.2,0.2c0,0.1,0.1,0.1,0.1,0.2c-0.2,0-0.5,0.2-0.7,0.3
			c-0.2,0.2-0.5,0.4-0.7,0.7c-0.2,0.3-0.4,0.6-0.5,0.9c-0.1,0.3-0.2,0.6-0.2,0.9c0,0.1,0,0.2,0.1,0.2c0.2,0,0.4-0.2,0.6-0.4
			c0.2-0.3,0.5-0.7,0.8-1.2c0.1-0.1,0.1-0.2,0.2-0.4c0.1-0.1,0.1-0.3,0.2-0.4c0.1-0.1,0.1-0.3,0.2-0.4C74.9,228.8,75,228.6,75,228.5
			z"/>
		<path class="st1" d="M80.3,228.6c0,0-0.1-0.1-0.1-0.2c0-0.1,0-0.2,0-0.3c0.2,0,0.3,0,0.4,0c0.1,0,0.3,0,0.4,0
			c0.1-0.2,0.2-0.3,0.3-0.5c0.1-0.2,0.2-0.3,0.3-0.5c0.1-0.1,0.2-0.3,0.3-0.4c0.1-0.1,0.1-0.2,0.2-0.2c0.1,0,0.1,0,0.2,0
			c0.1,0,0.2,0,0.3,0.1c0.1,0,0.2,0.1,0.3,0.1c0.1,0,0.1,0.1,0.2,0.1c-0.2,0.2-0.3,0.4-0.4,0.6c-0.1,0.2-0.3,0.4-0.4,0.7
			c0.1,0,0.2,0,0.4,0s0.2,0,0.4,0c0,0,0.1,0.1,0.1,0.1c0,0,0,0.1,0,0.1c-0.3,0.1-0.6,0.2-1,0.2c-0.1,0.3-0.3,0.6-0.4,0.8
			c-0.1,0.3-0.2,0.5-0.3,0.8c-0.1,0.3-0.1,0.5-0.2,0.7c0,0.2-0.1,0.4-0.1,0.6c0,0.3,0.1,0.4,0.3,0.4c0.2,0,0.3-0.1,0.5-0.1
			c0.2-0.1,0.3-0.1,0.4-0.3c0,0.1,0.1,0.1,0.1,0.1c0,0.1-0.1,0.1-0.2,0.2c-0.1,0.1-0.2,0.1-0.3,0.2c-0.1,0.1-0.2,0.1-0.3,0.2
			c-0.1,0-0.2,0.1-0.2,0.1c-0.1,0-0.3,0-0.4-0.1c-0.1-0.1-0.3-0.1-0.4-0.2c-0.1-0.1-0.2-0.2-0.3-0.3c-0.1-0.1-0.1-0.2-0.1-0.3
			c0-0.1,0-0.3,0.1-0.5c0-0.2,0.1-0.4,0.2-0.7c0.1-0.3,0.1-0.5,0.2-0.8c0.1-0.3,0.2-0.5,0.3-0.8L80.3,228.6z"/>
		<path class="st1" d="M87.2,228.5c0,0-0.1-0.1-0.1-0.2c0-0.1,0-0.2,0-0.3c0.2,0,0.3,0,0.4,0c0.1,0,0.3,0,0.4,0
			c0.1-0.2,0.2-0.3,0.3-0.5c0.1-0.2,0.2-0.3,0.3-0.5c0.1-0.1,0.2-0.3,0.3-0.4c0.1-0.1,0.1-0.2,0.2-0.2c0.1,0,0.1,0,0.2,0
			c0.1,0,0.2,0,0.3,0.1c0.1,0,0.2,0.1,0.3,0.1c0.1,0,0.1,0.1,0.2,0.1c-0.2,0.2-0.3,0.4-0.4,0.6c-0.1,0.2-0.3,0.4-0.4,0.7
			c0.1,0,0.2,0,0.4,0s0.2,0,0.4,0c0,0,0.1,0.1,0.1,0.1c0,0,0,0.1,0,0.1c-0.3,0.1-0.6,0.2-1,0.2c-0.1,0.3-0.3,0.6-0.4,0.8
			c-0.1,0.3-0.2,0.5-0.3,0.8c-0.1,0.3-0.1,0.5-0.2,0.7c0,0.2-0.1,0.4-0.1,0.6c0,0.3,0.1,0.4,0.3,0.4c0.2,0,0.3-0.1,0.5-0.1
			c0.2-0.1,0.3-0.1,0.4-0.3c0,0.1,0.1,0.1,0.1,0.1c0,0.1-0.1,0.1-0.2,0.2c-0.1,0.1-0.2,0.1-0.3,0.2c-0.1,0.1-0.2,0.1-0.3,0.2
			c-0.1,0-0.2,0.1-0.2,0.1c-0.1,0-0.3,0-0.4-0.1c-0.1-0.1-0.3-0.1-0.4-0.2c-0.1-0.1-0.2-0.2-0.3-0.3c-0.1-0.1-0.1-0.2-0.1-0.3
			c0-0.1,0-0.3,0.1-0.5c0-0.2,0.1-0.4,0.2-0.7s0.1-0.5,0.2-0.8c0.1-0.3,0.2-0.5,0.3-0.8L87.2,228.5z"/>
		<path class="st1" d="M94.6,232.1c-0.3,0-0.6-0.2-0.8-0.4c-0.2-0.3-0.3-0.6-0.3-1c0-0.2,0-0.5,0.1-0.7c0.1-0.3,0.2-0.5,0.3-0.7
			c0.1-0.2,0.3-0.5,0.4-0.7c0.2-0.2,0.4-0.4,0.6-0.6c0.3-0.2,0.6-0.4,0.9-0.4c0.2,0.1,0.4,0.3,0.6,0.6c0,0,0.1,0,0.1,0
			c0,0,0,0,0.1,0c0.3,0,0.5,0.3,0.5,0.8c0,0.4-0.1,0.7-0.2,1c-0.1,0.3-0.3,0.6-0.5,0.9c-0.2,0.3-0.5,0.5-0.8,0.7
			C95.3,231.9,95,232,94.6,232.1z M95,229.3c-0.1,0.1-0.2,0.3-0.3,0.4c-0.1,0.2-0.2,0.3-0.2,0.5c-0.1,0.2-0.1,0.3-0.1,0.5
			c0,0.1,0,0.3,0,0.4c0,0.1,0,0.3,0.1,0.4c0,0.1,0.1,0.2,0.2,0.2c0.3-0.1,0.5-0.2,0.7-0.3c0.2-0.2,0.4-0.4,0.6-0.6
			c0.2-0.2,0.3-0.5,0.4-0.8c0.1-0.3,0.1-0.6,0.1-1c0-0.2,0-0.3,0-0.4c0-0.1,0-0.2-0.1-0.2c-0.3,0.1-0.5,0.2-0.7,0.4
			C95.3,229,95.2,229.2,95,229.3z"/>
		<path class="st1" d="M102.3,232c-0.3,0-0.6-0.2-0.8-0.4c-0.2-0.3-0.3-0.6-0.3-1c0-0.2,0-0.5,0.1-0.7c0.1-0.3,0.2-0.5,0.3-0.7
			c0.1-0.2,0.3-0.5,0.4-0.7c0.2-0.2,0.4-0.4,0.6-0.6c0.3-0.2,0.6-0.4,0.9-0.4c0.2,0.1,0.4,0.3,0.6,0.6c0,0,0.1,0,0.1,0
			c0,0,0,0,0.1,0c0.3,0,0.5,0.3,0.5,0.8c0,0.4-0.1,0.7-0.2,1c-0.1,0.3-0.3,0.6-0.5,0.9c-0.2,0.3-0.5,0.5-0.8,0.7
			C102.9,231.8,102.6,231.9,102.3,232z M102.7,229.3c-0.1,0.1-0.2,0.3-0.3,0.4c-0.1,0.2-0.2,0.3-0.2,0.5c-0.1,0.2-0.1,0.3-0.1,0.5
			c0,0.1,0,0.3,0,0.4c0,0.1,0,0.3,0.1,0.4c0,0.1,0.1,0.2,0.2,0.2c0.3-0.1,0.5-0.2,0.7-0.3c0.2-0.2,0.4-0.4,0.6-0.6
			c0.2-0.2,0.3-0.5,0.4-0.8c0.1-0.3,0.1-0.6,0.1-1c0-0.2,0-0.3,0-0.4c0-0.1,0-0.2-0.1-0.2c-0.3,0.1-0.5,0.2-0.7,0.4
			C103,228.9,102.8,229.1,102.7,229.3z"/>
		<path class="st1" d="M117.7,228c0,0.1,0,0.2-0.1,0.3c0,0.1-0.1,0.2-0.1,0.3c0,0.1-0.1,0.2-0.1,0.2c-0.1,0.1-0.1,0.1-0.1,0.1
			c-0.1,0-0.1,0-0.1-0.1c0,0,0,0,0-0.1c0,0,0-0.1,0-0.1c0,0,0-0.1,0-0.1c0,0,0-0.1,0-0.1c0-0.1,0-0.1-0.1-0.2c0-0.1-0.1-0.1-0.2-0.1
			c-0.2,0-0.4,0.2-0.5,0.4c-0.1,0.3-0.2,0.7-0.2,1.3c0,0.1,0,0.1,0,0.1c0.1,0,0.2,0,0.3,0c0.1,0,0.2,0,0.3,0c0,0,0,0,0,0.1
			c0,0.1,0,0.1,0,0.1c-0.1,0-0.2,0.1-0.3,0.1c-0.1,0-0.1,0-0.2,0.1c0,0-0.1,0-0.1,0.1c0,0,0,0,0,0.1c0,0,0,0.1,0,0.1
			c0,0,0,0.1,0,0.2c0,0.5-0.1,0.9-0.4,1.2c-0.3,0.3-0.6,0.5-1.1,0.5c-0.1,0-0.2,0-0.3-0.1c-0.1,0-0.2-0.1-0.3-0.2
			c-0.1-0.1-0.1-0.1-0.2-0.2c-0.1-0.1-0.1-0.2-0.1-0.2c0-0.2,0-0.4,0.1-0.6c0.1-0.2,0.2-0.4,0.4-0.5c0.2-0.2,0.3-0.3,0.6-0.4
			c0.2-0.1,0.5-0.2,0.7-0.2c0-0.1,0-0.3,0-0.4c0-0.1-0.1-0.3-0.1-0.4c0-0.1-0.1-0.3-0.1-0.4c0-0.1,0-0.3,0-0.4c0-0.2,0-0.3,0.1-0.5
			c0.1-0.2,0.1-0.3,0.2-0.4c0.1-0.1,0.2-0.2,0.4-0.3c0.1-0.1,0.3-0.2,0.4-0.2c0.1,0,0.2,0.1,0.3,0.2c0.1,0.1,0.2,0.2,0.3,0.3
			c0.1,0.1,0.2,0.2,0.3,0.3C117.7,227.9,117.7,228,117.7,228z M114.9,232.1c0.1-0.1,0.3-0.1,0.4-0.3c0.1-0.1,0.2-0.2,0.3-0.4
			c0.1-0.1,0.2-0.3,0.2-0.4c0.1-0.2,0.1-0.3,0.1-0.5c-0.1,0-0.2,0.1-0.4,0.2c-0.1,0.1-0.3,0.2-0.4,0.3c-0.1,0.1-0.2,0.3-0.3,0.4
			c-0.1,0.1-0.1,0.3-0.1,0.4C114.7,231.9,114.8,232,114.9,232.1z"/>
		<path class="st1" d="M122,228.1c0,0-0.1-0.1-0.1-0.2c0-0.1,0-0.2,0-0.3c0.2,0,0.3,0,0.4,0c0.1,0,0.3,0,0.4,0
			c0.1-0.2,0.2-0.3,0.3-0.5c0.1-0.2,0.2-0.3,0.3-0.5c0.1-0.1,0.2-0.3,0.3-0.4c0.1-0.1,0.1-0.2,0.2-0.2c0.1,0,0.1,0,0.2,0
			c0.1,0,0.2,0,0.3,0.1c0.1,0,0.2,0.1,0.3,0.1c0.1,0,0.1,0.1,0.2,0.1c-0.2,0.2-0.3,0.4-0.4,0.6c-0.1,0.2-0.3,0.4-0.4,0.7
			c0.1,0,0.2,0,0.4,0c0.1,0,0.2,0,0.4,0c0,0,0.1,0.1,0.1,0.1c0,0,0,0.1,0,0.1c-0.3,0.1-0.6,0.2-1,0.2c-0.1,0.3-0.3,0.6-0.4,0.8
			c-0.1,0.3-0.2,0.5-0.3,0.8c-0.1,0.3-0.1,0.5-0.2,0.7c0,0.2-0.1,0.4-0.1,0.6c0,0.3,0.1,0.4,0.3,0.4c0.2,0,0.3-0.1,0.5-0.1
			c0.2-0.1,0.3-0.1,0.4-0.2c0,0.1,0.1,0.1,0.1,0.1c0,0.1-0.1,0.1-0.2,0.2c-0.1,0.1-0.2,0.1-0.3,0.2c-0.1,0.1-0.2,0.1-0.3,0.2
			s-0.2,0.1-0.2,0.1c-0.1,0-0.3,0-0.4-0.1c-0.1-0.1-0.3-0.1-0.4-0.2c-0.1-0.1-0.2-0.2-0.3-0.3c-0.1-0.1-0.1-0.2-0.1-0.3
			c0-0.1,0-0.3,0.1-0.5c0-0.2,0.1-0.4,0.2-0.7c0.1-0.3,0.1-0.5,0.2-0.8c0.1-0.3,0.2-0.5,0.3-0.8L122,228.1z"/>
		<path class="st1" d="M130.8,231.2c-0.1-0.1-0.2-0.2-0.2-0.3c0-0.1-0.1-0.3-0.1-0.4c0-0.1,0-0.2,0-0.3c0,0-0.1,0-0.2,0.1
			c-0.1,0.1-0.2,0.2-0.3,0.3c-0.1,0.1-0.2,0.3-0.3,0.4c-0.1,0.1-0.2,0.2-0.2,0.3c-0.1,0.1-0.1,0.1-0.2,0.2c-0.1,0-0.1,0.1-0.2,0.1
			c-0.1,0-0.2,0-0.3,0c-0.1,0-0.2-0.1-0.3-0.1c-0.1-0.1-0.2-0.1-0.2-0.2c-0.1-0.1-0.1-0.2-0.1-0.3c0-0.2,0-0.3,0-0.4
			c0-0.1,0-0.2,0.1-0.3c0-0.2,0.1-0.5,0.2-0.8c0.1-0.3,0.2-0.6,0.3-0.8c0.1-0.3,0.3-0.5,0.4-0.8c0.2-0.2,0.3-0.4,0.5-0.6
			c0.1,0,0.1,0,0.2,0c0.1,0,0.1,0,0.2,0c0.1,0,0.1,0,0.2,0.1c0.1,0,0.1,0.1,0.2,0.1c-0.1,0.1-0.2,0.3-0.4,0.6
			c-0.2,0.3-0.4,0.8-0.7,1.4c0,0.1-0.1,0.2-0.1,0.3c0,0.1-0.1,0.3-0.1,0.4c0,0.1-0.1,0.3-0.1,0.4c0,0.1,0,0.2,0,0.3c0,0,0,0.1,0,0.1
			c0,0,0,0,0,0.1c0.1,0,0.2-0.1,0.3-0.3c0.1-0.2,0.3-0.4,0.6-0.7c0.1-0.1,0.1-0.2,0.2-0.3c0.1-0.1,0.2-0.2,0.2-0.3
			c0.1-0.1,0.2-0.2,0.2-0.4c0.1-0.1,0.1-0.3,0.2-0.4c0-0.1,0.1-0.2,0.1-0.3c0-0.1,0.1-0.2,0.1-0.3c0.1-0.1,0.1-0.2,0.2-0.3
			c0.1-0.1,0.2-0.2,0.3-0.3c0.1,0,0.2,0,0.2,0c0.1,0,0.2,0,0.3,0.1c0.1,0,0.1,0.1,0.2,0.1c0.1,0,0.1,0.1,0.1,0.1
			c-0.1,0.3-0.2,0.5-0.3,0.8c-0.1,0.3-0.2,0.5-0.4,0.7c-0.1,0.2-0.2,0.5-0.3,0.7c-0.1,0.2-0.1,0.5-0.1,0.7c0,0.1,0,0.2,0,0.3
			c0,0.1,0,0.2,0.1,0.2c0,0.1,0,0.1,0.1,0.2c0,0,0,0.1,0,0.1c0,0,0,0,0,0c0,0,0,0,0,0c0,0-0.1,0-0.2,0c-0.1,0-0.1,0-0.2-0.1
			c-0.1,0-0.2-0.1-0.2-0.1C131,231.3,130.9,231.2,130.8,231.2z"/>
		<path class="st1" d="M138.4,227.2c0.1,0,0.3,0,0.4,0.1c0.2,0.1,0.3,0.2,0.4,0.3c0-0.2-0.1-0.5-0.1-0.7s-0.1-0.4-0.2-0.6
			c-0.1-0.2-0.2-0.5-0.3-0.7c-0.1-0.3-0.3-0.6-0.5-0.9c0-0.1,0.1-0.1,0.1-0.2c0.1-0.1,0.1-0.1,0.2-0.2c0.1-0.1,0.2-0.1,0.2-0.2
			c0.1,0,0.2-0.1,0.2-0.1c0.2,0.2,0.3,0.4,0.5,0.7c0.1,0.3,0.3,0.6,0.4,0.9c0.1,0.3,0.2,0.6,0.3,1c0.1,0.3,0.1,0.7,0.1,1
			c0,0.3,0,0.6-0.1,0.9c-0.1,0.3-0.2,0.6-0.3,0.9c-0.1,0.3-0.3,0.6-0.4,0.9c-0.2,0.3-0.3,0.5-0.5,0.7c-0.2,0.2-0.4,0.4-0.6,0.5
			c-0.2,0.1-0.4,0.2-0.6,0.3c-0.4,0-0.7-0.2-0.9-0.4c-0.2-0.2-0.3-0.5-0.3-0.9c0-0.2,0-0.4,0.1-0.6c0.1-0.2,0.1-0.5,0.2-0.7
			c0.1-0.2,0.2-0.5,0.4-0.7c0.1-0.2,0.3-0.4,0.4-0.6c0.2-0.2,0.3-0.3,0.5-0.5C138.1,227.3,138.2,227.2,138.4,227.2z M137.5,231.4
			c0.2-0.1,0.4-0.2,0.6-0.5c0.2-0.2,0.4-0.5,0.5-0.9c0.2-0.3,0.3-0.7,0.4-1c0.1-0.4,0.1-0.7,0.1-1.1c0-0.1,0-0.2,0-0.2
			c0,0,0,0,0-0.1c-0.1,0.1-0.3,0.2-0.4,0.3c-0.2,0.1-0.3,0.3-0.5,0.5c-0.2,0.2-0.3,0.4-0.4,0.6c-0.1,0.2-0.3,0.4-0.4,0.7
			c-0.1,0.2-0.2,0.4-0.3,0.6c-0.1,0.2-0.1,0.4-0.1,0.5C137.1,231.2,137.3,231.4,137.5,231.4z"/>
		<path class="st1" d="M144.1,230.6c0-0.1,0-0.1,0-0.2c0-0.1,0-0.2,0-0.3c0-0.1,0.1-0.3,0.1-0.5c0-0.2,0.1-0.4,0.1-0.7
			c0-0.1,0-0.2,0.1-0.3c0-0.1,0.1-0.3,0.2-0.4c0.1-0.1,0.1-0.3,0.2-0.4c0.1-0.1,0.2-0.2,0.3-0.3c0.1,0,0.2,0.1,0.4,0.2
			c0.2,0.1,0.3,0.2,0.4,0.4c-0.1,0.2-0.2,0.3-0.3,0.5c-0.1,0.2-0.2,0.3-0.2,0.5c-0.1,0.2-0.1,0.3-0.2,0.5c-0.1,0.2-0.1,0.4-0.2,0.6
			c-0.1,0.2-0.1,0.3-0.2,0.5c-0.1,0.2-0.1,0.3-0.1,0.5c0,0.1,0,0.2,0,0.2c0,0,0,0.1,0,0.1c0,0-0.1,0-0.1,0c-0.1,0-0.1-0.1-0.2-0.1
			c-0.1-0.1-0.1-0.1-0.2-0.2C144.1,230.9,144.1,230.8,144.1,230.6z M145.7,226.8c0,0,0-0.1,0-0.2c0,0-0.1-0.1-0.1-0.1
			c0-0.1,0-0.1,0-0.2c0-0.1,0-0.1,0-0.2c0-0.1,0-0.2,0.1-0.3c0-0.1,0.1-0.2,0.1-0.3c0-0.1,0.1-0.2,0.1-0.3c0.1,0,0.2,0,0.3,0.1
			c0.1,0,0.2,0.1,0.3,0.1c0.1,0.1,0.2,0.1,0.3,0.2c0.1,0.1,0.2,0.1,0.2,0.2c-0.1,0.1-0.1,0.2-0.3,0.3c-0.1,0.1-0.2,0.2-0.3,0.4
			c-0.1,0.1-0.2,0.2-0.3,0.4c-0.1,0.1-0.1,0.2-0.2,0.2c-0.1,0-0.1,0-0.2-0.1C145.8,226.9,145.7,226.9,145.7,226.8z"/>
		<path class="st1" d="M151,231.5c-0.3,0-0.6-0.2-0.8-0.4c-0.2-0.3-0.3-0.6-0.3-1c0-0.2,0-0.5,0.1-0.7c0.1-0.3,0.2-0.5,0.3-0.7
			c0.1-0.2,0.3-0.5,0.4-0.7c0.2-0.2,0.4-0.4,0.6-0.6c0.3-0.2,0.6-0.4,0.9-0.4c0.2,0.1,0.4,0.3,0.6,0.6c0,0,0.1,0,0.1,0
			c0,0,0,0,0.1,0c0.3,0,0.5,0.3,0.5,0.8c0,0.4-0.1,0.7-0.2,1c-0.1,0.3-0.3,0.6-0.5,0.9s-0.5,0.5-0.8,0.7
			C151.7,231.2,151.4,231.4,151,231.5z M151.4,228.7c-0.1,0.1-0.2,0.3-0.3,0.4c-0.1,0.2-0.2,0.3-0.2,0.5c-0.1,0.2-0.1,0.3-0.1,0.5
			c0,0.1,0,0.3,0,0.4c0,0.1,0,0.3,0.1,0.4c0,0.1,0.1,0.2,0.2,0.2c0.3-0.1,0.5-0.2,0.7-0.3c0.2-0.2,0.4-0.4,0.6-0.6
			c0.2-0.2,0.3-0.5,0.4-0.8c0.1-0.3,0.1-0.6,0.1-1c0-0.2,0-0.3,0-0.4c0-0.1,0-0.2-0.1-0.2c-0.3,0.1-0.5,0.2-0.7,0.4
			C151.7,228.3,151.6,228.5,151.4,228.7z"/>
	</g>
</g>
</svg>
